<svg width="100" height="100" viewBox="0 0 100 100" fill="none" xmlns="http://www.w3.org/2000/svg">
  <rect width="100" height="100" rx="8" fill="#1F2937"/>
  <path d="M50 25C36.193 25 25 36.193 25 50C25 63.807 36.193 75 50 75C63.807 75 75 63.807 75 50C75 36.193 63.807 25 50 25ZM50 30C61.046 30 70 38.954 70 50C70 61.046 61.046 70 50 70C38.954 70 30 61.046 30 50C30 38.954 38.954 30 50 30Z" fill="#6B7280"/>
  <path d="M50 40C44.477 40 40 44.477 40 50C40 55.523 44.477 60 50 60C55.523 60 60 55.523 60 50C60 44.477 55.523 40 50 40ZM50 45C52.761 45 55 47.239 55 50C55 52.761 52.761 55 50 55C47.239 55 45 52.761 45 50C45 47.239 47.239 45 50 45Z" fill="#9CA3AF"/>
  <text x="50" y="85" text-anchor="middle" font-family="Arial, sans-serif" font-size="10" fill="#6B7280">Logo</text>
</svg>